# xmcd CD database file
# Copyright (C) 1996 Ti Kan
#
# Track frame offsets:
#  182
#  20765
#  39060
#  53142
#  68007
#  91275
#  112410
#  132700
#  154355
#  175500
#  191210
#  207615
#
# Disc length: 2991 seconds
#
# Revision: 1
# Processed by: cddbd v1.4b41PL1 Copyright (c) Steve Scherf et al.
# Submitted via: CDWizzard Release:4.13
#
DISCID=b10bad0c
DTITLE=Stereo MC's - CONNECTED
DYEAR=1900
DGENRE=
TTITLE0=Connected
TTITLE1=Ground Level
TTITLE2=Everything
TTITLE3=Fade Away
TTITLE4=All Night Long
TTITLE5=Step It Up
TTITLE6=Playing With Fire
TTITLE7=Pressure
TTITLE8=Chicken Shake
TTITLE9=Creation
TTITLE10=Don't Let Up
TTITLE11=The End
EXTD=
EXTT0=
EXTT1=
EXTT2=
EXTT3=
EXTT4=
EXTT5=
EXTT6=
EXTT7=
EXTT8=
EXTT9=
EXTT10=
EXTT11=
PLAYORDER=
